<svg xmlns="http://www.w3.org/2000/svg" id="Capa_1" data-name="Capa 1" viewBox="33.16 28.72 61.69 70.55">
  <defs>
    <style>
      .cls-1 {
        stroke-width: 0px;
      }
    </style>
  </defs>
  <path class="cls-1" d="m94.85,55.14c0-10.1-4.26-18.87-10.33-24.95-.81-.81-2.12-.81-2.92,0l-4.87,4.87c-4.62-3.95-10.61-6.34-17.15-6.34-14.57,0-26.42,11.85-26.42,26.42,0,6.54,2.39,12.54,6.34,17.15l-4.87,4.87c-.81.81-.81,2.12,0,2.92,2.89,2.89,10.61,9.56,22.88,10.27v4.78h-15.65c-1.14,0-2.07.93-2.07,2.07s.93,2.07,2.07,2.07h35.42c1.14,0,2.07-.93,2.07-2.07s-.93-2.07-2.07-2.07h-15.65v-4.78c18.49-1.07,33.21-16.46,33.21-35.22Zm-42.94-20.93l1.77,1.77c.92.92.92,2.42,0,3.34l-6.26,6.26c-2.54,2.54-2.54,6.64,0,9.19.92.92.92,2.42,0,3.34-.92.92-2.42.92-3.34,0l-6.51-6.51c1.29-8.03,6.89-14.65,14.34-17.38Zm-14.53,23.05l3.77,3.77c2.53,2.53,6.65,2.53,9.19,0,2.53-2.53,2.53-6.65,0-9.19-.92-.92-.92-2.42,0-3.34l6.26-6.26c2.54-2.54,2.54-6.64,0-9.19h0c.97-.14,1.96-.2,2.97-.2,11.57,0,21.12,8.87,22.19,20.17l-3.77-3.77c-2.54-2.54-6.65-2.54-9.19,0-2.54,2.54-2.54,6.64,0,9.18.92.92.92,2.42,0,3.34l-6.26,6.26c-2.54,2.54-2.54,6.64,0,9.19h0c-.97.14-1.97.21-2.97.21-11.58,0-21.12-8.87-22.19-20.17Zm34.34-1.75c-.92-.92-.92-2.41,0-3.34.92-.92,2.42-.92,3.34,0l6.51,6.51c-1.29,8.03-6.89,14.65-14.34,17.38l-1.77-1.77c-.92-.92-.92-2.42,0-3.34l6.26-6.26c2.53-2.53,2.53-6.65,0-9.19Zm-12.15,30.77c-3.55,0-12.44-.63-20.51-7.71l3.36-3.36c4.62,3.95,10.61,6.34,17.15,6.34,14.57,0,26.42-11.85,26.42-26.42,0-6.54-2.39-12.54-6.34-17.15l3.36-3.36c7.07,8.07,7.71,16.97,7.71,20.51,0,17.17-13.97,31.14-31.14,31.14Z"/>
</svg>