<svg xmlns="http://www.w3.org/2000/svg" id="Capa_1" data-name="Capa 1" viewBox="28.72 28.71 70.56 70.57">
  <defs>
    <style>
      .cls-1 {
        stroke-width: 0px;
      }
    </style>
  </defs>
  <path class="cls-1" d="m97.21,68.28c1.14,0,2.07-.93,2.07-2.07v-17.71c0-1.14-.93-2.07-2.07-2.07h-.35c-.62-3.21-2.65-5.93-5.42-7.48.75-1.06,1.19-2.35,1.19-3.74,0-3.58-2.91-6.5-6.49-6.5s-6.5,2.91-6.5,6.5c0,1.39.44,2.68,1.19,3.74-2.77,1.55-4.8,4.26-5.42,7.48h-.69c-.62-3.21-2.65-5.93-5.42-7.48.75-1.06,1.19-2.35,1.19-3.74,0-3.58-2.91-6.5-6.49-6.5s-6.49,2.91-6.49,6.5c0,1.39.44,2.68,1.19,3.74-2.77,1.55-4.8,4.26-5.42,7.48h-.69c-.62-3.21-2.65-5.93-5.42-7.48.75-1.06,1.19-2.35,1.19-3.74,0-3.58-2.91-6.5-6.49-6.5s-6.49,2.91-6.49,6.5c0,1.39.44,2.68,1.19,3.74-2.77,1.55-4.8,4.26-5.42,7.48h-.35c-1.14,0-2.07.93-2.07,2.07v17.71c0,1.14.93,2.07,2.07,2.07h4.91c.2.6.49,1.16.85,1.67-2.77,1.55-4.8,4.26-5.42,7.48h-.35c-1.14,0-2.07.93-2.07,2.07v17.71c0,1.14.93,2.07,2.07,2.07h66.42c1.14,0,2.07-.93,2.07-2.07v-17.71c0-1.14-.93-2.07-2.07-2.07h-.35c-.62-3.21-2.65-5.93-5.42-7.48.36-.51.65-1.07.85-1.67h4.91Zm-11.07-35.42c1.3,0,2.36,1.06,2.36,2.36s-1.06,2.36-2.36,2.36-2.36-1.06-2.36-2.36,1.06-2.36,2.36-2.36Zm0,8.86c3.02,0,5.59,1.99,6.47,4.72h-12.93c.88-2.74,3.44-4.72,6.47-4.72Zm-22.14-8.86c1.3,0,2.36,1.06,2.36,2.36s-1.06,2.36-2.36,2.36-2.36-1.06-2.36-2.36,1.06-2.36,2.36-2.36Zm0,8.86c3.02,0,5.59,1.99,6.47,4.72h-12.93c.88-2.74,3.44-4.72,6.47-4.72Zm-22.14-8.86c1.3,0,2.36,1.06,2.36,2.36s-1.06,2.36-2.36,2.36-2.36-1.06-2.36-2.36,1.06-2.36,2.36-2.36Zm0,8.86c3.02,0,5.59,1.99,6.47,4.72h-12.93c.88-2.74,3.44-4.72,6.47-4.72Zm0,31c3.02,0,5.59,1.99,6.47,4.72h-12.93c.88-2.74,3.44-4.72,6.47-4.72Zm-2.36-6.5c0-1.3,1.06-2.36,2.36-2.36s2.36,1.06,2.36,2.36-1.06,2.36-2.36,2.36-2.36-1.06-2.36-2.36Zm24.5,6.5c3.02,0,5.59,1.99,6.47,4.72h-12.93c.88-2.74,3.44-4.72,6.47-4.72Zm-2.36-6.5c0-1.3,1.06-2.36,2.36-2.36s2.36,1.06,2.36,2.36-1.06,2.36-2.36,2.36-2.36-1.06-2.36-2.36Zm7.67,3.74c.36-.51.65-1.07.85-1.67h9.83c.2.6.49,1.16.85,1.67-2.77,1.55-4.8,4.26-5.42,7.48h-.69c-.62-3.21-2.65-5.93-5.42-7.48Zm-16.03,7.48h-.69c-.62-3.21-2.65-5.93-5.42-7.48.36-.51.65-1.07.85-1.67h9.83c.2.6.49,1.16.85,1.67-2.77,1.55-4.8,4.26-5.42,7.48Zm41.87,4.13v13.58h-62.29v-13.58h62.29Zm-2.54-4.13h-12.93c.88-2.74,3.44-4.72,6.47-4.72s5.59,1.99,6.47,4.72Zm-8.83-11.22c0-1.3,1.06-2.36,2.36-2.36s2.36,1.06,2.36,2.36-1.06,2.36-2.36,2.36-2.36-1.06-2.36-2.36Zm2.36-6.49c-2.86,0-5.29,1.86-6.16,4.43h-9.83c-.87-2.57-3.3-4.43-6.16-4.43s-5.29,1.86-6.16,4.43h-9.83c-.87-2.57-3.3-4.43-6.16-4.43s-5.29,1.86-6.16,4.43h-2.85v-13.58h62.29v13.58h-2.85c-.87-2.57-3.3-4.43-6.16-4.43Z"/>
</svg>