<svg xmlns="http://www.w3.org/2000/svg" id="Capa_1" data-name="Capa 1" viewBox="32.41 28.74 63.16 70.56">
  <defs>
    <style>
      .cls-1 {
        stroke-width: 0px;
      }
    </style>
  </defs>
  <path class="cls-1" d="m91.77,71.26c-3.01-1.74-6.72-1.18-9.1,1.13l-3.32-1.91v-12.95l3.32-1.91c2.38,2.31,6.09,2.87,9.1,1.14,3.63-2.1,4.88-6.75,2.78-10.38-2.1-3.63-6.75-4.88-10.39-2.78-3.01,1.74-4.38,5.24-3.57,8.45l-3.32,1.91-11.22-6.48v-3.83c3.19-.9,5.53-3.84,5.53-7.31,0-4.19-3.41-7.6-7.6-7.6s-7.6,3.41-7.6,7.6c0,3.48,2.35,6.41,5.54,7.31v3.83l-11.22,6.48-3.32-1.91c.81-3.21-.56-6.71-3.57-8.45-3.63-2.1-8.29-.85-10.38,2.78-2.1,3.63-.85,8.29,2.78,10.39,3.01,1.74,6.72,1.18,9.1-1.14l3.32,1.91v12.95l-3.32,1.91c-2.38-2.31-6.09-2.87-9.1-1.13-3.63,2.1-4.88,6.75-2.78,10.39,2.1,3.63,6.75,4.88,10.38,2.78,3.01-1.74,4.38-5.24,3.57-8.45l3.32-1.91,11.22,6.48v3.83c-3.19.9-5.54,3.84-5.54,7.31,0,4.19,3.41,7.6,7.6,7.6s7.6-3.41,7.6-7.6c0-3.48-2.35-6.41-5.53-7.31v-3.83l11.22-6.48,3.32,1.91c-.81,3.21.56,6.71,3.57,8.45,3.63,2.1,8.29.85,10.39-2.78,2.1-3.63.85-8.29-2.78-10.39Zm-5.53-24.1c1.66-.96,3.78-.39,4.74,1.27.96,1.66.39,3.78-1.27,4.74-1.66.96-3.78.39-4.74-1.27-.96-1.66-.39-3.78,1.27-4.74Zm-43.2,4.74c-.96,1.66-3.08,2.22-4.74,1.27-1.66-.96-2.22-3.08-1.27-4.74.96-1.66,3.08-2.22,4.74-1.27,1.66.96,2.22,3.08,1.27,4.74Zm-1.27,28.95c-1.66.96-3.78.39-4.74-1.27-.96-1.66-.39-3.78,1.27-4.74,1.66-.96,3.78-.39,4.74,1.27.96,1.66.39,3.78-1.27,4.74Zm18.77-44.52c0-1.91,1.56-3.47,3.47-3.47s3.47,1.56,3.47,3.47-1.56,3.47-3.47,3.47-3.47-1.56-3.47-3.47Zm6.94,55.35c0,1.91-1.56,3.47-3.47,3.47s-3.47-1.56-3.47-3.47,1.56-3.47,3.47-3.47,3.47,1.56,3.47,3.47Zm7.75-21.2l-11.22,6.48-11.22-6.48v-12.95l11.22-6.48,11.22,6.48v12.95Zm15.75,9.1c-.96,1.66-3.08,2.22-4.74,1.27-1.66-.96-2.23-3.08-1.27-4.74.96-1.66,3.08-2.23,4.74-1.27,1.66.96,2.22,3.08,1.27,4.74Z"/>
</svg>