<svg xmlns="http://www.w3.org/2000/svg" id="Capa_1" data-name="Capa 1" viewBox="31.7 32.04 64.63 63.93">
  <defs>
    <style>
      .cls-1 {
        stroke-width: 0px;
      }
    </style>
  </defs>
  <path class="cls-1" d="m55.89,40.27h-14.2c-1.05,0-1.89.93-1.89,2.07s.85,2.07,1.89,2.07h14.2c1.05,0,1.89-.93,1.89-2.07s-.85-2.07-1.89-2.07Z"/>
  <path class="cls-1" d="m86.31,40.27h-14.2c-1.05,0-1.89.93-1.89,2.07s.85,2.07,1.89,2.07h14.2c1.05,0,1.89-.93,1.89-2.07s-.85-2.07-1.89-2.07Z"/>
  <path class="cls-1" d="m55.89,49.12h-14.2c-1.05,0-1.89.93-1.89,2.07s.85,2.07,1.89,2.07h14.2c1.05,0,1.89-.93,1.89-2.07s-.85-2.07-1.89-2.07Z"/>
  <path class="cls-1" d="m51.83,57.98h-10.14c-1.05,0-1.89.93-1.89,2.07s.85,2.07,1.89,2.07h10.14c1.05,0,1.89-.93,1.89-2.07s-.85-2.07-1.89-2.07Z"/>
  <path class="cls-1" d="m94.43,32.04h-22.31c-3.34,0-6.3,1.78-8.11,4.53-1.82-2.74-4.77-4.53-8.11-4.53h-22.31c-1.05,0-1.89.93-1.89,2.07v44.28c0,1.14.85,2.07,1.89,2.07h25.8c2.25,5.23,7.11,8.86,12.74,8.86,3.2,0,6.15-1.17,8.51-3.14l8.41,9.18c.74.81,1.94.81,2.68,0,.74-.81.74-2.12,0-2.92l-8.41-9.18c.6-.86,1.13-1.8,1.55-2.79h9.57c1.05,0,1.89-.93,1.89-2.07v-44.28c0-1.14-.85-2.07-1.89-2.07Zm-36.21,44.28h-22.75v-40.15h20.42c3.44,0,6.22,3.04,6.22,6.79v20.22c-2.51,2.77-4.06,6.58-4.06,10.78,0,.8.06,1.59.17,2.36Zm13.9,8.86c-5.67,0-10.28-5.03-10.28-11.22s4.61-11.22,10.28-11.22,10.28,5.03,10.28,11.22-4.61,11.22-10.28,11.22Zm20.42-8.86h-6.52c.11-.77.17-1.56.17-2.36s-.06-1.59-.17-2.36h.3c1.05,0,1.89-.93,1.89-2.07s-.85-2.07-1.89-2.07h-1.46c-.77-1.79-1.84-3.39-3.15-4.72h4.61c1.05,0,1.89-.93,1.89-2.07s-.85-2.07-1.89-2.07h-14.2c-2.23,0-4.34.57-6.22,1.59v-17.23c0-3.75,2.78-6.79,6.22-6.79h20.42v40.15Z"/>
</svg>