<svg width="201" height="70" viewBox="0 0 201 70" fill="none" xmlns="http://www.w3.org/2000/svg">
<g clip-path="url(#clip0)">
<path d="M19.6078 60.3642C17.8151 61.1111 15.9477 61.4846 14.0056 61.4846H1.34454C0.597572 61.4846 0 62.0822 0 62.8292C0 63.5761 0.597572 64.1737 1.34454 64.1737H14.3791C14.4164 64.1737 14.4538 64.1737 14.4911 64.1737C16.62 64.099 18.7115 63.6882 20.6909 62.8292C21.3632 62.5304 21.6993 61.7461 21.4006 61.0738C21.1018 60.3642 20.3175 60.0654 19.6078 60.3642Z" fill="white"/>
<path d="M14.4911 30C14.4538 30 14.4164 30 14.3791 30H1.34454C0.597572 30 0 30.5976 0 31.3445C0 32.0915 0.597572 32.6891 1.34454 32.6891H14.0056C21.9608 32.6891 28.422 39.1503 28.422 47.1055C28.422 49.9066 27.6377 52.6331 26.1064 54.9486C25.6956 55.5836 25.8824 56.4052 26.4799 56.8161C26.704 56.9655 26.9655 57.0402 27.1895 57.0402C27.6377 57.0402 28.0486 56.8161 28.31 56.4426C30.1027 53.6788 31.0738 50.4669 31.0738 47.1429C31.0738 37.8058 23.6788 30.2614 14.4911 30Z" fill="white"/>
<path d="M24.4631 41.242C24.0896 40.607 23.268 40.3829 22.6331 40.7564C21.9981 41.1299 21.774 41.9516 22.1475 42.5865C22.9318 43.9684 23.3427 45.537 23.3427 47.143C23.3427 52.185 19.2344 56.2933 14.1923 56.2933H1.34454C0.597572 56.2933 0 56.8909 0 57.6378C0 58.3848 0.597572 58.9824 1.34454 58.9824H14.4538C14.4911 58.9824 14.4911 58.9824 14.5285 58.9824C20.915 58.7956 26.0318 53.5669 26.0318 47.143C26.0318 45.0888 25.5089 43.0347 24.4631 41.242Z" fill="white"/>
<path d="M17.2923 35.7145C16.3959 35.4531 15.4622 35.3411 14.5285 35.3037C14.4911 35.3037 14.4538 35.3037 14.4164 35.3037H1.34454C0.597572 35.3037 0 35.9013 0 36.6482C0 37.3952 0.597572 37.9928 1.34454 37.9928H14.2297C15.0514 37.9928 15.8357 38.1048 16.62 38.2916C16.732 38.3289 16.8441 38.3289 16.9561 38.3289C17.5537 38.3289 18.0766 37.9181 18.2633 37.3579C18.45 36.6482 18.0392 35.9386 17.2923 35.7145Z" fill="white"/>
<path d="M14.7152 40.6064C14.6779 40.6064 14.6405 40.6064 14.6032 40.6064H1.41924C0.672274 40.6064 0.0747018 41.204 0.0747018 41.951C0.0747018 42.6979 0.672274 43.2955 1.41924 43.2955H14.5285C16.4706 43.2955 18.0392 45.0509 18.0392 47.2171C18.0392 49.3833 16.4706 51.1387 14.5285 51.1387H1.38189C0.634926 51.1387 0.0373535 51.7362 0.0373535 52.4832C0.0373535 53.2302 0.634926 53.8277 1.38189 53.8277H14.5658C14.6032 53.8277 14.6032 53.8277 14.6405 53.8277C18.0019 53.753 20.7283 50.8399 20.7283 47.2544C20.7283 43.5943 18.0392 40.6811 14.7152 40.6064Z" fill="white"/>
<path d="M1.41924 48.525H9.00094C9.74791 48.525 10.3455 47.9274 10.3455 47.1805C10.3455 46.4335 9.74791 45.8359 9.00094 45.8359H1.41924C0.672279 45.8359 0.074707 46.4335 0.074707 47.1805C0.074707 47.9274 0.672279 48.525 1.41924 48.525Z" fill="white"/>
<path d="M13.2466 48.5617C14.009 48.5271 14.5991 47.881 14.5645 47.1185C14.5299 46.3561 13.8838 45.7661 13.1213 45.8007C12.3589 45.8352 11.7689 46.4814 11.8035 47.2438C11.838 48.0062 12.4842 48.5963 13.2466 48.5617Z" fill="white"/>
<path d="M24.0896 57.6377C23.3427 57.6377 22.7078 58.2726 22.7078 59.0196C22.7078 59.7665 23.3427 60.4015 24.0896 60.4015C24.8366 60.4015 25.4715 59.7665 25.4715 59.0196C25.4715 58.2726 24.8366 57.6377 24.0896 57.6377Z" fill="white"/>
<path d="M21.8861 38.9258C21.8861 38.1789 21.2512 37.5439 20.5042 37.5439C19.7572 37.5439 19.1223 38.1789 19.1223 38.9258C19.1223 39.6728 19.7572 40.3077 20.5042 40.3077C21.2512 40.3077 21.8861 39.7101 21.8861 38.9258Z" fill="white"/>
<path d="M169.823 39.001C164.444 39.001 160.56 43.1466 160.56 47.9646C160.56 52.8572 164.258 56.9281 169.823 56.9281C175.425 56.9281 179.085 52.8945 179.085 47.9646C179.122 43.1466 175.238 39.001 169.823 39.001ZM169.823 54.1644C166.536 54.1644 163.697 51.2512 163.697 47.9646C163.697 44.4165 166.536 41.7647 169.823 41.7647C173.109 41.7647 175.948 44.4165 175.948 47.9646C175.948 51.2886 173.109 54.1644 169.823 54.1644Z" fill="white"/>
<path d="M191.559 39.0013C188.982 39.0013 186.741 39.935 185.135 41.4662V32.0918V32.0545V32.0171V31.8677C185.061 31.1208 184.426 30.5605 183.679 30.5605C182.932 30.5605 182.26 31.1208 182.185 31.8677V55.808C182.222 56.5923 182.857 57.2272 183.679 57.2272C184.5 57.2272 185.135 56.5923 185.173 55.808V55.7706V55.7333V54.6128C186.779 56.0694 188.982 56.9658 191.597 56.9658C197.199 56.9658 200.859 52.9322 200.859 48.0022C200.822 43.1469 196.975 39.0013 191.559 39.0013ZM191.559 54.1647C188.273 54.1647 185.434 51.2515 185.434 47.9648C185.434 44.4168 188.273 41.765 191.559 41.765C194.846 41.765 197.684 44.4168 197.684 47.9648C197.684 51.2888 194.846 54.1647 191.559 54.1647Z" fill="white"/>
<path d="M101.662 39.4492C96.2839 39.4492 92.3997 43.5949 92.3997 48.4128C92.3997 53.3054 96.0971 57.3764 101.662 57.3764C107.227 57.3764 110.924 53.3428 110.924 48.4128C110.962 43.5949 107.078 39.4492 101.662 39.4492ZM101.662 54.6126C98.3754 54.6126 95.5369 51.6995 95.5369 48.4128C95.5369 44.8647 98.3754 42.213 101.662 42.213C104.949 42.213 107.787 44.8647 107.787 48.4128C107.787 51.6995 104.949 54.6126 101.662 54.6126Z" fill="white"/>
<path d="M79.4024 48.2634C79.4024 43.4455 75.5182 39.2998 70.1401 39.2998C64.7619 39.2998 60.8777 43.4455 60.8777 48.2634C60.8777 53.156 64.5752 57.227 70.1401 57.227C72.7171 57.227 74.846 56.368 76.4519 54.9861V55.8824C76.4519 55.8824 76.4519 55.8824 76.4519 55.9198C76.4519 55.9198 76.4519 55.9198 76.4519 55.9571C76.4893 56.7414 77.1242 57.4137 77.9459 57.4137C78.7675 57.4137 79.4024 56.7788 79.4398 55.9571C79.4398 55.9571 79.4398 55.9571 79.4398 55.9198C79.4398 55.9198 79.4398 55.9198 79.4398 55.8824V48.4128C79.4024 48.3381 79.4024 48.3007 79.4024 48.2634ZM70.1027 54.4632C66.8161 54.4632 63.9776 51.55 63.9776 48.2634C63.9776 44.7153 66.8161 42.0636 70.1027 42.0636C73.3894 42.0636 76.2278 44.7153 76.2278 48.2634C76.2278 51.55 73.4267 54.4632 70.1027 54.4632Z" fill="white"/>
<path d="M57.6657 32.1668C57.6657 31.3451 56.9934 30.6729 56.1718 30.6729C55.3501 30.6729 54.6779 31.3451 54.6779 32.1668C54.6779 32.1668 54.6779 32.1668 54.6779 32.2041V41.7653C53.0345 40.234 50.831 39.3003 48.2539 39.3003C42.8758 39.3003 38.9916 43.446 38.9916 48.2639C38.9916 53.1565 42.6891 57.2275 48.2539 57.2275C50.8683 57.2275 53.1092 56.3311 54.6779 54.8745V55.8829C54.6779 55.8829 54.6779 55.8829 54.6779 55.9203C54.6779 55.9576 54.6779 55.9203 54.6779 55.9576V56.107C54.7525 56.854 55.3875 57.4142 56.1344 57.4142C56.8814 57.4142 57.5163 56.854 57.591 56.107V55.9576C57.591 55.9576 57.591 55.9576 57.591 55.9203C57.591 55.8829 57.591 55.9203 57.591 55.8829L57.6657 32.1668C57.6657 32.1668 57.6657 32.2041 57.6657 32.1668ZM48.2539 54.4637C44.9673 54.4637 42.1288 51.5505 42.1288 48.2639C42.1288 44.7158 44.9673 42.0641 48.2539 42.0641C51.5406 42.0641 54.3791 44.7158 54.3791 48.2639C54.3791 51.5505 51.5406 54.4637 48.2539 54.4637Z" fill="white"/>
<path d="M89.7105 54.6124H89.5984H88.3659C87.2081 54.6124 86.9094 54.2763 86.9094 53.3799V42.2875H89.4864H89.5237H89.5611H89.5984C90.2707 42.2502 90.7936 41.6899 90.7936 40.9803C90.7936 40.3081 90.2707 39.7478 89.5984 39.6731H89.5611C89.5237 39.6731 89.5237 39.6731 89.4864 39.6731C89.449 39.6731 89.449 39.6731 89.4117 39.6731H86.8347V32.7637V32.7264C86.8347 31.9047 86.1624 31.2324 85.3407 31.2324C84.5191 31.2324 83.8841 31.8673 83.8468 32.689V32.7264V39.6358H81.6432C81.6059 39.6358 81.6059 39.6358 81.5685 39.6358C81.5312 39.6358 81.5312 39.6358 81.4938 39.6358H81.4565C80.7842 39.6731 80.2614 40.2334 80.2614 40.943C80.2614 41.6152 80.7842 42.1755 81.4565 42.2502H81.5312H81.5685H81.6059H83.8094V53.6414C83.8094 56.2558 84.7432 57.3389 87.7684 57.3389C88.3659 57.3389 88.9635 57.3389 89.4117 57.3015C89.449 57.3015 89.449 57.3015 89.4864 57.3015C90.2334 57.3015 90.8683 56.7039 90.8683 55.9196C90.9803 55.2474 90.4201 54.6498 89.7105 54.6124Z" fill="white"/>
<path d="M132.101 53.9028C131.466 54.463 131.391 55.4341 131.951 56.1064C132.512 56.7413 133.483 56.816 134.155 56.2557C134.79 55.6955 134.865 54.7245 134.304 54.0522C133.707 53.4173 132.736 53.3426 132.101 53.9028Z" fill="white"/>
<path d="M126.909 47.8906C126.125 47.0689 124.855 46.6208 123.137 46.6208L120.299 46.5834C119.402 46.5461 118.767 46.3593 118.357 46.0232C117.946 45.7244 117.722 45.3509 117.684 44.8654C117.647 44.1931 117.871 43.6329 118.319 43.1847C118.767 42.7365 119.514 42.4751 120.672 42.4004C121.643 42.3257 122.502 42.4378 123.287 42.6618C123.996 42.8859 124.668 43.2221 125.303 43.5956C125.602 43.8196 125.938 43.9317 126.274 43.8943C126.648 43.857 126.984 43.7076 127.245 43.4088C127.507 43.11 127.619 42.7739 127.582 42.4004C127.544 41.9896 127.358 41.6534 127.059 41.392L126.984 41.3547C126.2 40.7571 125.378 40.3463 124.332 40.0101C123.809 39.8607 123.212 39.7487 122.614 39.674C122.017 39.6366 121.307 39.5993 120.523 39.674C118.767 39.786 117.348 40.3089 116.265 41.2426C115.145 42.139 114.659 43.4088 114.771 45.0895C114.883 46.4714 115.406 47.5171 116.302 48.1894C117.199 48.9364 118.357 49.3098 119.738 49.3472L122.764 49.4219C123.436 49.3845 123.996 49.4966 124.407 49.758C124.855 50.0195 125.117 50.505 125.154 51.1773C125.191 51.9616 124.893 52.5965 124.22 53.0447C123.585 53.4928 122.764 53.7543 121.718 53.829C119.514 53.9784 117.61 53.3808 116.116 51.9989L116.078 51.9616C115.78 51.7375 115.443 51.6254 115.107 51.6628C114.323 51.7001 113.725 52.4097 113.763 53.1941C113.8 53.5302 113.95 53.8663 114.174 54.0904L114.211 54.1278C114.286 54.2025 114.36 54.2772 114.472 54.3145C116.713 55.9952 119.104 56.7421 121.681 56.5554C123.66 56.406 125.266 55.8458 126.461 54.8747C127.656 53.941 128.217 52.7085 128.142 51.1399C128.104 49.7954 127.656 48.7123 126.909 47.8906Z" fill="white"/>
<path d="M157.348 60.9995C157.386 60.8874 157.386 60.7754 157.386 60.6634C157.386 59.8043 156.676 59.0947 155.817 59.0947C154.958 59.0947 154.248 59.8043 154.248 60.6634C154.248 60.7754 154.248 60.8874 154.286 60.9995H154.248C154.248 64.2861 151.41 67.1993 148.123 67.1993C144.837 67.1993 141.998 64.2861 141.998 60.9995H141.961C141.998 60.8874 141.998 60.7754 141.998 60.6634C141.998 59.8043 141.288 59.0947 140.429 59.0947C139.57 59.0947 138.861 59.8043 138.861 60.6634C138.861 60.7754 138.861 60.8874 138.898 60.9995H138.861C138.861 65.9295 142.558 70.0004 148.198 70.0004C153.838 70.0004 157.535 65.9295 157.535 60.9995H157.348Z" fill="white"/>
<path d="M157.759 40.5704C157.759 39.786 157.124 39.1885 156.377 39.1885H147.04C142.147 39.674 138.749 43.5956 138.749 48.1521C138.749 53.082 142.446 57.153 148.086 57.153C153.725 57.153 157.423 53.082 157.423 48.1521C157.423 45.8365 156.527 43.5956 154.883 41.9522H156.377C157.124 41.9896 157.759 41.3547 157.759 40.5704ZM154.211 48.1894C154.211 51.4761 151.372 54.3892 148.086 54.3892C144.799 54.3892 141.961 51.4761 141.961 48.1894C141.961 44.7907 144.725 42.0269 148.123 42.0269C151.485 42.0269 154.248 44.7907 154.211 48.1894Z" fill="white"/>
</g>
<rect width="77" height="10" fill="#0F69B4"/>
<rect x="77" width="92" height="10" fill="#EB3C46"/>
<defs>
<clipPath id="clip0">
<rect width="200.822" height="40" fill="white" transform="translate(0 30)"/>
</clipPath>
</defs>
</svg>
